# xmcd
#
# Track frame offsets: 
#        150
#        11498
#        21759
#        36935
#        44232
#        51386
#        61540
#        72105
#        83031
#        89223
#        97773
#        110697
#        119349
#        128577
#        138654
#        161339
#        168922
#        182836
#        190241
#        200879
#        208372
#
# Disc length: 2900 seconds
#
# Revision: 0
# Processed by: cddbd v1.5.1PL0 Copyright (c) Steve Scherf et al.
# Submitted via: ExactAudioCopy v0.95a5
#
DISCID=320b5215
DTITLE=Иванов Александр - Амулет
DYEAR=2004
DGENRE=
TTITLE0=Грядут с верховий холода
TTITLE1=Любовь и слава (ст. И. Северянина)
TTITLE2=Это было на озере Селигер (ст. Н. Глазкова)
TTITLE3=Никто никому не обязан (ст. О. Чухонцева)
TTITLE4=Батюшков (ст. О. Чухонцева)
TTITLE5=Вот женщина (ст. О. Чухонцева)
TTITLE6=Амулет
TTITLE7=Переживешь дурные времена (ст. Б. Кенжеева)
TTITLE8=Расскажи мне об ангелах (ст. Б. Кенжеева)
TTITLE9=Любовники (ст. Б. Кенжеева)
TTITLE10=Меж болотных стволов (ст. Н. Рубцова)
TTITLE11=Быть нелюбимым (ст. А. Кушнера)
TTITLE12=На последнем пороге (ст. Р. Фроста)
TTITLE13=Колечко (ст. И. Бяльского)
TTITLE14=Испанские мотивы (ст. О. Тарутина)
TTITLE15=Ночью птица возится в кустах (ст. И. Шкляревского)
TTITLE16=Куда плывет (ст. Б. Кенжеева)
TTITLE17=Комната смеха (ст. А. Решетова)
TTITLE18=То-то в зеркальце (ст. М. Цветаевой)
TTITLE19=Осенний день неговорлив (ст. П. Радимова)
TTITLE20=Только камни, пески (ст. И. Бунина)
EXTD=
EXTT0=
EXTT1=
EXTT2=
EXTT3=
EXTT4=
EXTT5=
EXTT6=
EXTT7=
EXTT8=
EXTT9=
EXTT10=
EXTT11=
EXTT12=
EXTT13=
EXTT14=
EXTT15=
EXTT16=
EXTT17=
EXTT18=
EXTT19=
EXTT20=
PLAYORDER=
